<?xml version="1.0" encoding="UTF-8" standalone="no"?> <svg width="64" height="64" viewBox="0 0 64 64" fill="none" xmlns="http://www.w3.org/2000/svg">
<path d="M13 16H12C11.4701 16.0016 10.9623 16.2128 10.5875 16.5875C10.2128 16.9623 10.0016 17.4701 10 18V21C10.0016 21.5299 10.2128 22.0377 10.5875 22.4125C10.9623 22.7872 11.4701 22.9984 12 23H16V16H13Z" fill="#ED1C24"/>
<path d="M16 14C16 13.4696 16.2107 12.9609 16.5858 12.5858C16.9609 12.2107 17.4696 12 18 12H30C30.5304 12 31.0391 12.2107 31.4142 12.5858C31.7893 12.9609 32 13.4696 32 14V16H35V9C35 7.4087 34.3679 5.88258 33.2426 4.75736C32.1174 3.63214 30.5913 3 29 3H25C23.9391 3 22.9217 3.42143 22.1716 4.17157C21.4214 4.92172 21 5.93913 21 7C21 6.46957 20.7893 5.96086 20.4142 5.58579C20.0391 5.21071 19.5304 5 19 5H17C15.9391 5 14.9217 5.42143 14.1716 6.17157C13.4214 6.92172 13 7.93913 13 9V16H16V14Z" fill="#58595B"/>
<path d="M29 34V30.24C27.5825 31.3791 25.8185 32.0001 24 32.0001C22.1815 32.0001 20.4175 31.3791 19 30.24V34L24 37L29 34Z" fill="#FFA791"/>
<path d="M24 32C22.1812 32.0015 20.4168 31.3805 19 30.24V31.24C20.4175 32.3791 22.1815 33.0001 24 33.0001C25.8185 33.0001 27.5825 32.3791 29 31.24V30.24C27.5832 31.3805 25.8188 32.0015 24 32V32Z" fill="#FF9478"/>
<path d="M24 42L26.332 40.834L26.158 38.727L24 37L21.842 38.727L21.674 40.756L24 42Z" fill="#D80027"/>
<path d="M24 42L21.674 40.756L20 61H24H28L26.332 40.834L24 42Z" fill="#ED1C24"/>
<path d="M19 41L15 35L10.57 36.11C8.40685 36.6505 6.48661 37.8989 5.11486 39.6566C3.74311 41.4143 2.99867 43.5804 3 45.81V61H20L21.674 40.756L21.842 38.727L19 41Z" fill="#57A4FF"/>
<path d="M37.43 36.11L33 35L29 41L26.158 38.727L26.332 40.834L28 61H45V45.81C45.0014 43.5804 44.2569 41.4143 42.8852 39.6566C41.5134 37.8989 39.5932 36.6505 37.43 36.11Z" fill="#57A4FF"/>
<path d="M24 37L19 34L15 35L19 41L24 37Z" fill="#006DF0"/>
<path d="M29 41L33 35L29 34L24 37L29 41Z" fill="#006DF0"/>
<path d="M32 14V24C32 26.1217 31.1571 28.1566 29.6569 29.6569C28.1566 31.1571 26.1217 32 24 32C21.8783 32 19.8434 31.1571 18.3431 29.6569C16.8429 28.1566 16 26.1217 16 24V14C16.0016 13.4701 16.2128 12.9623 16.5875 12.5875C16.9623 12.2128 17.4701 12.0016 18 12H30C30.5299 12.0016 31.0377 12.2128 31.4125 12.5875C31.7872 12.9623 31.9984 13.4701 32 14Z" fill="#FFBCAB"/>
<path d="M51 3C48.7488 2.99893 46.5632 3.75795 44.7972 5.15408C43.0312 6.55022 41.7883 8.5017 41.2699 10.6924C40.7514 12.8831 40.9878 15.1846 41.9407 17.2242C42.8935 19.2638 44.5071 20.9219 46.52 21.93L45 28L52.73 22.85C55.1951 22.4182 57.4086 21.0777 58.9336 19.0933C60.4585 17.109 61.184 14.6249 60.9667 12.1318C60.7494 9.63857 59.6051 7.31749 57.7599 5.62684C55.9147 3.93619 53.5026 2.99888 51 3V3Z" fill="#FFCD00"/>
<path d="M51 3C50.4976 3.00403 49.9962 3.04582 49.5 3.125C51.8455 3.47879 53.9886 4.65535 55.5462 6.44428C57.1037 8.23322 57.9742 10.5179 58.0018 12.8897C58.0295 15.2615 57.2126 17.5659 55.6971 19.3906C54.1817 21.2154 52.0666 22.4416 49.73 22.85L45.6 25.6L45 28L52.73 22.85C55.1951 22.4182 57.4087 21.0777 58.9336 19.0933C60.4585 17.109 61.184 14.6249 60.9667 12.1318C60.7494 9.63857 59.6052 7.31749 57.7599 5.62684C55.9147 3.93619 53.5026 2.99888 51 3V3Z" fill="#EBBF00"/>
<path d="M21 20C21.2652 20 21.5196 19.8946 21.7071 19.7071C21.8946 19.5196 22 19.2652 22 19V18C22 17.7348 21.8946 17.4804 21.7071 17.2929C21.5196 17.1054 21.2652 17 21 17C20.7348 17 20.4804 17.1054 20.2929 17.2929C20.1054 17.4804 20 17.7348 20 18V19C20 19.2652 20.1054 19.5196 20.2929 19.7071C20.4804 19.8946 20.7348 20 21 20Z" fill="#58595B"/>
<path d="M27 20C27.2652 20 27.5196 19.8946 27.7071 19.7071C27.8946 19.5196 28 19.2652 28 19V18C28 17.7348 27.8946 17.4804 27.7071 17.2929C27.5196 17.1054 27.2652 17 27 17C26.7348 17 26.4804 17.1054 26.2929 17.2929C26.1054 17.4804 26 17.7348 26 18V19C26 19.2652 26.1054 19.5196 26.2929 19.7071C26.4804 19.8946 26.7348 20 27 20Z" fill="#58595B"/>
<path d="M33 28H26C25.7348 28 25.4804 27.8946 25.2929 27.7071C25.1054 27.5196 25 27.2652 25 27C25 26.7348 25.1054 26.4804 25.2929 26.2929C25.4804 26.1054 25.7348 26 26 26H33C33.2652 26 33.5196 25.8946 33.7071 25.7071C33.8946 25.5196 34 25.2652 34 25V22C34 21.7348 34.1054 21.4804 34.2929 21.2929C34.4804 21.1054 34.7348 21 35 21C35.2652 21 35.5196 21.1054 35.7071 21.2929C35.8946 21.4804 36 21.7348 36 22V25C36 25.7956 35.6839 26.5587 35.1213 27.1213C34.5587 27.6839 33.7956 28 33 28V28Z" fill="#939598"/>
<path d="M51.717 6.063C51.1403 5.95793 50.5476 5.98088 49.9808 6.13024C49.414 6.2796 48.8869 6.5517 48.4369 6.9273C47.9869 7.3029 47.6249 7.77282 47.3766 8.3038C47.1283 8.83477 46.9997 9.41383 47 10C47 10.2652 47.1054 10.5196 47.2929 10.7071C47.4804 10.8946 47.7348 11 48 11C48.2652 11 48.5196 10.8946 48.7071 10.7071C48.8946 10.5196 49 10.2652 49 10C48.9997 9.70577 49.0644 9.41512 49.1894 9.14876C49.3144 8.88239 49.4966 8.64689 49.723 8.45903C49.9495 8.27117 50.2146 8.13558 50.4994 8.06194C50.7843 7.9883 51.0819 7.97842 51.371 8.033C51.7668 8.10977 52.1307 8.30313 52.4158 8.58824C52.7009 8.87334 52.8942 9.23717 52.971 9.633C53.0652 10.1311 52.9667 10.6464 52.6955 11.0746C52.4243 11.5029 52.0006 11.8122 51.51 11.94C51.0856 12.0429 50.7073 12.2835 50.4341 12.6242C50.1609 12.9648 50.0083 13.3864 50 13.823V16C50 16.2652 50.1054 16.5196 50.2929 16.7071C50.4804 16.8946 50.7348 17 51 17C51.2652 17 51.5196 16.8946 51.7071 16.7071C51.8946 16.5196 52 16.2652 52 16L52.011 13.871C52.9892 13.6191 53.8353 13.0054 54.3784 12.1538C54.9215 11.3022 55.1212 10.2761 54.937 9.283C54.7878 8.48408 54.4004 7.74899 53.8257 7.1743C53.251 6.59961 52.5159 6.21221 51.717 6.063V6.063Z" fill="#ED1C24"/>
<path d="M51 20C51.5523 20 52 19.5523 52 19C52 18.4477 51.5523 18 51 18C50.4477 18 50 18.4477 50 19C50 19.5523 50.4477 20 51 20Z" fill="#ED1C24"/>
<path d="M36 48C36.2652 48 36.5196 48.1054 36.7071 48.2929C36.8946 48.4804 37 48.7348 37 49V61H35V49C35 48.7348 35.1054 48.4804 35.2929 48.2929C35.4804 48.1054 35.7348 48 36 48Z" fill="#2488FF"/>
<path d="M12 48C12.2652 48 12.5196 48.1054 12.7071 48.2929C12.8946 48.4804 13 48.7348 13 49V61H11V49C11 48.7348 11.1054 48.4804 11.2929 48.2929C11.4804 48.1054 11.7348 48 12 48V48Z" fill="#2488FF"/>
<path d="M32 23H36C36.5299 22.9984 37.0377 22.7872 37.4125 22.4125C37.7872 22.0377 37.9984 21.5299 38 21V18C37.9984 17.4701 37.7872 16.9623 37.4125 16.5875C37.0377 16.2128 36.5299 16.0016 36 16H32V23Z" fill="#ED1C24"/>
<path d="M25 25H23C22.4696 25 21.9609 25.2107 21.5858 25.5858C21.2107 25.9609 21 26.4696 21 27C21 27.5304 21.2107 28.0391 21.5858 28.4142C21.9609 28.7893 22.4696 29 23 29H25C25.5304 29 26.0391 28.7893 26.4142 28.4142C26.7893 28.0391 27 27.5304 27 27C27 26.4696 26.7893 25.9609 26.4142 25.5858C26.0391 25.2107 25.5304 25 25 25Z" fill="#58595B"/>
</svg>
